HIERARCHY
ROOT Hips
{
    OFFSET 0.0 0.0 0.0
    CHANNELS 6 Xposition Yposition Zposition Zrotation Xrotation Yrotation
    JOINT LeftHipJoint
    {
        OFFSET 0.1 0.0 0.0
        CHANNELS 3 Zrotation Xrotation Yrotation
        JOINT LeftUpLeg
        {
            OFFSET 126.97552802708572 0.0 0.0
            CHANNELS 3 Zrotation Xrotation Yrotation
            JOINT LeftLeg
            {
                OFFSET 0.0 0.0 -408.3928746960463
                CHANNELS 3 Zrotation Xrotation Yrotation
                JOINT LeftFoot
                {
                    OFFSET 0.0 0.0 -392.3994305009846
                    CHANNELS 3 Zrotation Xrotation Yrotation
                    End Site
                    {
                        OFFSET 0.0 -0.1 0.0
                    }
                }
            }
        }
    }
    JOINT LowerBack
    {
        OFFSET 0.0 0.0 0.1
        CHANNELS 3 Zrotation Xrotation Yrotation
        JOINT Spine
        {
            OFFSET 0.0 0.0 218.51849983340463
            CHANNELS 3 Zrotation Xrotation Yrotation
            JOINT Spine1
            {
                OFFSET 0.0 0.0 252.03442693875965
                CHANNELS 3 Zrotation Xrotation Yrotation
                JOINT LeftShoulder
                {
                    OFFSET 0.1 0.0 0.0
                    CHANNELS 3 Zrotation Xrotation Yrotation
                    JOINT LeftArm
                    {
                        OFFSET 144.20295474586956 0.0 0.0
                        CHANNELS 3 Zrotation Xrotation Yrotation
                        JOINT LeftForeArm
                        {
                            OFFSET 262.47662991372636 0.0 0.0
                            CHANNELS 3 Zrotation Xrotation Yrotation
                            JOINT LeftHand
                            {
                                OFFSET 243.94809465466668 0.0 0.0
                                CHANNELS 3 Zrotation Xrotation Yrotation
                                End Site
                                {
                                    OFFSET 0.1 0.0 0.0
                                }
                            }
                        }
                    }
                }
                JOINT Neck
                {
                    OFFSET 0.0 0.0 0.1
                    CHANNELS 3 Zrotation Xrotation Yrotation
                    JOINT Neck1
                    {
                        OFFSET 0.0 0.0 104.69799913019233
                        CHANNELS 3 Zrotation Xrotation Yrotation
                        End Site
                        {
                            OFFSET 0.0 0.0 114.49465937060506
                        }
                    }
                }
                JOINT RightShoulder
                {
                    OFFSET -0.1 0.0 0.0
                    CHANNELS 3 Zrotation Xrotation Yrotation
                    JOINT RightArm
                    {
                        OFFSET -144.20295474586956 0.0 0.0
                        CHANNELS 3 Zrotation Xrotation Yrotation
                        JOINT RightForeArm
                        {
                            OFFSET -262.47662991372636 0.0 0.0
                            CHANNELS 3 Zrotation Xrotation Yrotation
                            JOINT RightHand
                            {
                                OFFSET -243.94809465466668 0.0 0.0
                                CHANNELS 3 Zrotation Xrotation Yrotation
                                End Site
                                {
                                    OFFSET -0.1 0.0 0.0
                                }
                            }
                        }
                    }
                }
            }
        }
    }
    JOINT RightHipJoint
    {
        OFFSET -0.1 0.0 0.0
        CHANNELS 3 Zrotation Xrotation Yrotation
        JOINT RightUpLeg
        {
            OFFSET -126.97552802708572 0.0 0.0
            CHANNELS 3 Zrotation Xrotation Yrotation
            JOINT RightLeg
            {
                OFFSET 0.0 0.0 -408.3928746960463
                CHANNELS 3 Zrotation Xrotation Yrotation
                JOINT RightFoot
                {
                    OFFSET 0.0 0.0 -392.3994305009846
                    CHANNELS 3 Zrotation Xrotation Yrotation
                    End Site
                    {
                        OFFSET 0.0 -0.1 0.0
                    }
                }
            }
        }
    }
}
MOTION
Frames: 10
Frame Time: 0.03333333333333333
0.0 0.0 792.9179289637539 28.579516609761352 -3.7697849698529646 6.815723035030623 0.0 0.0 -3.975693351829396e-16 -0.05927662668931039 -16.38995023396883 -0.11316128241749521 0.07643123765555963 36.21980207181475 -0.24419814082806285 0.0 0.0 7.951386703658792e-16 0.0 0.0 -3.975693351829396e-16 0.0032612267206001177 0.8841679586931992 1.6601555752768804 3.431878445864852 -8.543068070524157e-16 -1.963145382155952e-15 0.0 0.0 0.0 -15.70234494223686 13.169554509229902 73.7648068489825 -18.386535997674578 -3.8014645766388964e-15 1.6023056869101012e-14 0.0 0.0 -5.963540027744094e-16 0.0 0.0 0.0 -14.517310111085385 4.193880954730054 -12.21315167834298 0.0 0.0 0.0 18.22015789106869 -52.76437329105333 -26.683706281976054 117.0959351850811 -7.533907330717113e-15 -1.20647752555842e-14 0.0 0.0 0.0 0.0 0.0 -3.975693351829396e-16 -0.03486891979575381 -8.70739399296659 -5.269782378215812 -2.891329874616369 29.702014802361294 2.7680229363410964 0.0 0.0 0.0
0.0 0.0 792.9179289637539 28.492160268218846 -3.734644374302858 6.772289403737081 -3.4483642953516864e-34 -1.987846675914698e-16 -1.987846675914698e-16 -0.042138125249497664 -16.567562315805827 -0.08198565085177305 0.05421146884684562 36.55739293884144 -0.21622991894388563 0.0 0.0 -3.975693351829396e-16 -3.4483642953516864e-34 -1.987846675914698e-16 -1.987846675914698e-16 0.0020797897027767243 0.7875232227949345 1.6256000557495538 3.4330751533400754 3.973909282343743e-16 -1.1909090428196767e-17 0.0 0.0 -5.963540027744093e-16 -15.980975354815923 13.515287197875825 73.92967761863318 -18.741424852902455 -5.373355886512578e-15 -1.6233680635755049e-15 0.0 0.0 -2.0375428428125655e-15 0.0 0.0 -5.963540027744093e-16 -14.46359090936799 4.287483243090015 -12.088479502845196 0.0 0.0 -5.963540027744093e-16 18.333263416054177 -52.70480356029197 -26.651771222377576 116.95700888086905 6.651410184864806e-15 -1.0844980030463336e-14 0.0 0.0 0.0 -3.4483642953516864e-34 -1.987846675914698e-16 -1.987846675914698e-16 -0.026023089495168142 -8.837565668623766 -5.246955209679446 -2.9282043747678954 29.829578242469744 2.9168121841096855 0.0 0.0 -7.951386703658792e-16
0.0 0.0 792.9179289637539 28.43337790726257 -3.634291345818033 6.725967603529309 0.0 -1.987846675914698e-16 0.0 -0.021051282761254207 -16.768369168589672 -0.05192797110845759 0.02093280243191925 36.60279844425372 -0.14825573169109246 0.0 0.0 -7.951386703658792e-16 0.0 -1.987846675914698e-16 0.0 0.0010212075398581626 0.7371099940487261 1.5800175813288055 3.4621429907846304 -1.2522131541409473e-15 -1.9509097903393005e-15 0.0 0.0 -1.9878466759146977e-16 -16.419264212295108 13.99263716625714 74.07833645422724 -19.075975039944783 1.9731659546053428e-16 6.023597970021635e-15 -5.963540027744094e-16 -1.6552148617688095e-32 3.1805546814635168e-15 0.0 0.0 -1.9878466759146977e-16 -14.351262261647594 4.371897820392574 -12.055496174323954 0.0 0.0 -1.9878466759146977e-16 18.6783514825796 -52.794837118446324 -26.30390941253641 116.55405902719048 -5.4107620024602e-15 -3.3447521402715123e-15 0.0 0.0 0.0 0.0 -1.987846675914698e-16 0.0 -0.015146772264641601 -9.062129279208078 -5.2097403381350595 -2.931107807014743 29.681542324064193 2.9706802906809084 0.0 0.0 3.975693351829396e-16
0.0 0.0 792.9179289637539 28.406668250213137 -3.8074532099044722 6.677058896892221 0.0 0.0 3.975693351829396e-16 -0.014945752534325887 -16.58807928551318 -0.03351458158866567 0.019493435173492026 36.691455303668455 -0.16394728327751676 0.0 0.0 -3.975693351829396e-16 0.0 0.0 3.975693351829396e-16 0.0007962319882384398 0.7619029248045435 1.5776693241885622 3.4834466570923337 -3.6113433858432123e-16 1.2042407368434728e-15 0.0 0.0 0.0 -16.688155526114667 14.269221982608931 74.2120673814505 -19.23348429574923 -2.878456932554539e-15 1.4608424356525175e-14 1.9878466759146985e-16 -1.5902773407317588e-15 -1.018771421406283e-15 0.0 0.0 0.0 -14.098129998165948 4.475045430717977 -12.07549834172607 0.0 0.0 0.0 18.67316145757732 -52.84420388005681 -26.320940155966994 116.2932430478149 1.0806270350047273e-14 6.714117248764805e-15 0.0 0.0 0.0 0.0 0.0 3.975693351829396e-16 -0.011746930409204666 -8.774846420999486 -5.18434128776866 -2.918142235184637 29.599587615992107 3.035565739519563 0.0 0.0 -3.975693351829396e-16
0.0 0.0 792.9179289637539 28.31925036653244 -3.9083601009903233 6.73744428009486 0.0 0.0 -1.987846675914698e-16 -0.006497191226985531 -16.470377433789007 -0.13387243788571296 -0.07785230515621536 36.909197018509126 -0.10988532842310088 0.0 0.0 0.0 0.0 0.0 -1.987846675914698e-16 0.00041706884429021146 0.7548725293945627 1.4654652214806425 3.448240753751245 4.0935103160627995e-16 3.854276656890155e-16 0.0 0.0 1.987846675914698e-16 -17.141654518300044 14.447653147971552 74.4154364096504 -19.31693041433473 6.17789002406239e-15 -1.0234302871566956e-14 0.0 0.0 1.4908850069360234e-15 0.0 0.0 1.987846675914698e-16 -14.012846135578583 4.518477265571673 -11.957836825112894 0.0 0.0 1.987846675914698e-16 18.57229837845631 -52.946059573432954 -26.326927725076622 115.84989300066968 2.0121684906044473e-15 8.76804440109963e-15 0.0 0.0 0.0 0.0 0.0 -1.987846675914698e-16 -0.007257027264848575 -8.591632331294203 -5.3136327156875645 -3.0068461573025296 29.58455055659953 3.2022795739547973 -1.3793457181406746e-33 -1.987846675914698e-16 -7.951386703658792e-16
0.0 0.0 792.9179289637539 28.290059984554112 -3.8517735831552993 6.827164488502136 0.0 0.0 -1.987846675914698e-16 -0.024845870984811565 -16.627528890596682 -0.2792859814215146 -0.13968251191314043 36.97394419142125 -0.04906726658768945 6.896728590703373e-33 -1.9878466759146984e-15 3.975693351829397e-16 0.0 0.0 -1.987846675914698e-16 0.0011553050871541525 0.7154080270972976 1.3669832051322666 3.3908793142196516 7.889091935639009e-16 -2.2222316146393234e-16 0.0 0.0 -3.975693351829396e-16 -17.64049004303217 14.514446195497683 74.56681185354942 -19.431232250382468 1.5150966203933394e-15 -8.849157380152062e-15 -6.957463365701442e-16 -1.7575881767870626e-32 2.8948017218007786e-15 0.0 0.0 -3.975693351829396e-16 -13.960217026305367 4.572143980614036 -11.861174297709919 0.0 0.0 -3.975693351829396e-16 18.41140783991219 -53.186874433855934 -26.374672824694336 115.44493987515939 -1.2172065231658456e-14 7.359306328169884e-15 -3.975693351829396e-16 0.0 0.0 0.0 0.0 -1.987846675914698e-16 -0.01646863709766458 -8.652292284767912 -5.469199534721396 -3.0753858761507216 29.7020372071305 3.293532593111169 0.0 0.0 0.0
0.0 0.0 792.9179289637539 28.259160255153855 -4.093224710995524 6.965279070454926 0.0 0.0 0.0 -0.05765232350658896 -16.467879328482102 -0.529411408762726 -0.24197460157209433 37.17585795929843 0.1060984968606556 0.0 0.0 -7.951386703658792e-16 0.0 0.0 0.0 0.002687355531516101 0.7532117717032316 1.2395476008198638 3.2662042778986176 -6.798232893451216e-17 -2.3844470950208997e-15 -6.361109362927033e-15 0.0 0.0 -18.53021070666815 14.56432176860408 74.76248995208088 -19.34484001991531 -2.146211828648396e-15 -6.042061550242385e-15 0.0 0.0 2.4257941467021547e-15 -6.361109362927033e-15 0.0 0.0 -13.771784086324645 4.566340616542064 -11.809274792698837 -6.361109362927033e-15 0.0 0.0 17.961108379423095 -53.414344773463526 -26.786939488810365 115.26814056091922 -3.405258518163157e-15 5.372888120144995e-15 0.0 0.0 -6.3611093629270335e-15 0.0 0.0 0.0 -0.03245206913620271 -8.371021888919804 -5.75715495573159 -3.176064677716479 29.700701429167296 3.453274126774472 -3.1805546814635168e-15 -1.1034765745125397e-32 3.975693351829396e-16
0.0 0.0 792.9179289637539 28.16062043832665 -4.119412051042836 6.942196825181146 0.0 0.0 0.0 -0.04859184607333552 -16.436353990679955 -0.5349802745034091 -0.2700239019810138 37.147390032625175 0.07449525185893859 1.1034765745125397e-32 -1.5902773407317584e-15 7.951386703658792e-16 0.0 0.0 0.0 0.0020385084894465858 0.6713494434972631 1.210156588338551 3.1838293870554297 -3.3134118072487914e-17 -1.1922476742354333e-15 0.0 0.0 1.987846675914698e-16 -18.916821238721884 14.450718681316431 74.95403018794225 -19.25405015428267 1.5799348156739544e-15 4.355212076163273e-15 7.951386703658792e-16 1.1293393067276773e-32 1.627549465905159e-15 0.0 0.0 1.987846675914698e-16 -13.642175521316803 4.516966223028117 -11.752615908889046 0.0 0.0 1.987846675914698e-16 17.778296529476474 -53.81540701591222 -26.930493833000366 114.7802601538108 -3.428102977948988e-15 5.358341375807932e-15 0.0 0.0 0.0 0.0 0.0 0.0 -0.027673708854817135 -8.289804397679971 -5.722486029733074 -3.1623126629179272 29.61119239628603 3.3697880740721597 0.0 0.0 3.975693351829396e-16
0.0 0.0 792.9179289637539 28.089855599584023 -4.053003114467676 7.012486942664244 0.0 0.0 -1.9878466759146977e-16 -0.06904676422278225 -16.56918610511006 -0.6453233594938828 -0.30175899796167527 37.286298114269705 0.0650909907132921 0.0 0.0 7.951386703658792e-16 0.0 0.0 -1.9878466759146977e-16 0.0024630040155831936 0.5846652373483502 1.0725574157255324 3.150210573548398 3.91955058660062e-16 -2.0963766917718526e-16 0.0 0.0 -3.9756933518293955e-16 -19.663530878659696 14.486916567996278 75.16018129200566 -19.36089969102254 -1.520182783168254e-15 2.0733395993175196e-14 0.0 0.0 1.7642139248742944e-15 0.0 0.0 -3.9756933518293955e-16 -13.561672222179403 4.438246901168846 -11.762867765560763 0.0 0.0 -3.9756933518293955e-16 17.743876535698583 -54.2597064093682 -26.91259387689873 114.30104909208826 -1.5570034662203331e-15 1.413839813563643e-14 3.975693351829396e-16 0.0 0.0 0.0 0.0 -1.9878466759146977e-16 -0.0376544931758256 -8.319694100848674 -5.8497026747919945 -3.209473644392996 29.71256749889196 3.3447843783510853 0.0 0.0 -3.975693351829396e-16
0.0 0.0 792.9179289637539 28.061440142346132 -4.290812972596465 7.100215251567996 0.0 0.0 -5.963540027744094e-16 -0.09483915671215411 -16.358612686740255 -0.7442468658850349 -0.3031936834623601 37.13168575073364 0.07376809028007743 0.0 0.0 0.0 0.0 0.0 -5.963540027744094e-16 0.003723754023470145 0.6414514422708066 0.973322873650779 3.147208739580076 -1.987097003673808e-15 5.458850552716602e-17 0.0 0.0 1.987846675914698e-16 -20.009456642748702 14.607756819950907 75.3796002884678 -19.327162336758224 1.6746176958439914e-15 -2.7292971838051618e-15 0.0 0.0 1.888454342118963e-15 0.0 0.0 1.987846675914698e-16 -13.527156132962338 4.428805269061431 -11.750826231105277 0.0 0.0 1.987846675914698e-16 17.374040896574556 -54.567967774663636 -27.24790436579124 113.93714985724701 5.332974217549799e-15 3.4674339679461924e-15 3.975693351829396e-16 0.0 0.0 0.0 0.0 -5.963540027744094e-16 -0.049112901002669865 -7.998627150607338 -5.966812752756223 -3.1957892632031237 29.496550590528894 3.3112966000038355 0.0 0.0 0.0
